<svg xmlns="http://www.w3.org/2000/svg" width="72.57" height="72.57" viewBox="0 0 72.57 72.57">
  <defs>
    <style>
      .cls-1 {
        fill: #6bcae2;
      }
    </style>
  </defs>
  <title>Asset 14</title>
  <g id="Layer_2" data-name="Layer 2">
    <g id="Layer_1-2" data-name="Layer 1">
      <g id="color_guide" data-name="color guide">
        <g id="phone">
          <path class="cls-1" d="M6.48,2.66,3,8.29S-10,26.19,18,54.35h0l.14.13.12.13h0c28.16,28,46.06,14.91,46.06,14.91l5.63-3.43a6.65,6.65,0,0,0,.72-10L63.9,49.36a6.64,6.64,0,0,0-8.68-.62l-7.15,4.58s-4.81,2.83-18.26-10.56S19.26,24.51,19.26,24.51l4.57-7.16a6.64,6.64,0,0,0-.62-8.68L16.49,2A6.64,6.64,0,0,0,6.48,2.66Z"/>
          <g>
            <path class="cls-1" d="M40.53,17.41A10.72,10.72,0,0,1,55.69,32.57"/>
            <path class="cls-1" d="M35.71,12.6A17.53,17.53,0,1,1,60.5,37.39"/>
            <path class="cls-1" d="M30.8,7.69A24.47,24.47,0,0,1,65.41,42.3"/>
          </g>
        </g>
      </g>
    </g>
  </g>
</svg>
